HIERARCHY
ROOT Hips
{
	OFFSET 0.00000 0.00000 0.00000
	CHANNELS 6 Xposition Yposition Zposition Zrotation Yrotation Xrotation 
	JOINT LHipJoint
	{
		OFFSET 0 0 0
		CHANNELS 3 Zrotation Yrotation Xrotation
		JOINT LeftHip
		{
			OFFSET 1.48831 -1.59570 0.95625
			CHANNELS 3 Zrotation Yrotation Xrotation
			JOINT LeftKnee
			{
				OFFSET 2.20856 -6.06797 0.00000
				CHANNELS 3 Zrotation Yrotation Xrotation
				JOINT LeftAnkle
				{
					OFFSET 2.62924 -7.22379 0.00000
					CHANNELS 3 Zrotation Yrotation Xrotation
					JOINT LeftToe
					{
						OFFSET 0.16802 -0.46163 2.41673
						CHANNELS 3 Zrotation Yrotation Xrotation
						End Site
						{
							OFFSET 0.00000 -0.00000 1.23760
						}
					}
				}
			}
		}
	}
	JOINT RHipJoint
	{
		OFFSET 0 0 0
		CHANNELS 3 Zrotation Yrotation Xrotation
		JOINT RightHip
		{
			OFFSET -1.56796 -1.59570 0.95625
			CHANNELS 3 Zrotation Yrotation Xrotation
			JOINT RightKnee
			{
				OFFSET -2.29239 -6.29829 0.00000
				CHANNELS 3 Zrotation Yrotation Xrotation
				JOINT RightAnkle
				{
					OFFSET -2.66963 -7.33475 0.00000
					CHANNELS 3 Zrotation Yrotation Xrotation
					JOINT RightToe
					{
						OFFSET -0.18185 -0.49964 2.34359
						CHANNELS 3 Zrotation Yrotation Xrotation
						End Site
						{
							OFFSET -0.00000 -0.00000 1.20477
						}
					}
				}
			}
		}
	}
	JOINT lowerback
	{
		OFFSET 0 0 0
		CHANNELS 3 Zrotation Yrotation Xrotation
		JOINT Chest
		{
			OFFSET 0.03505 2.15832 -0.34324
			CHANNELS 3 Zrotation Yrotation Xrotation
			JOINT Chest2
			{
				OFFSET -0.01089 2.17963 0.04689
				CHANNELS 3 Zrotation Yrotation Xrotation
				JOINT lowerneck
				{
					OFFSET 0 0 0
					CHANNELS 3 Zrotation Yrotation Xrotation
					JOINT Neck
					{
						OFFSET 0.04686 1.69404 0.22159
						CHANNELS 3 Zrotation Yrotation Xrotation
						JOINT Head
						{
							OFFSET 0.00265 1.69305 -0.01513
							CHANNELS 3 Zrotation Yrotation Xrotation
							End Site
							{
								OFFSET -0.00415 1.80215 -0.03034
							}
						}
					}
				}
				JOINT LeftCollar
				{
					OFFSET 0 0 0
					CHANNELS 3 Zrotation Yrotation Xrotation
					JOINT LeftShoulder
					{
						OFFSET 3.67184 1.11724 -0.19002
CHANNELS 3 Zrotation Xrotation Yrotation
						JOINT LeftElbow
						{
OFFSET 0 -5.177140 -0.000000
CHANNELS 3 Zrotation Xrotation Yrotation
							JOINT LeftWrist
							{
OFFSET 0 -3.436790 -0.000000
CHANNELS 3 Zrotation Xrotation Yrotation
								JOINT lhand
								{
									OFFSET 0 0 0
CHANNELS 3 Zrotation Xrotation Yrotation
									JOINT LFingers
									{
OFFSET 0 -0.573120 -0.000000
CHANNELS 3 Zrotation Xrotation Yrotation
										End Site
										{
OFFSET 0 -0.462060 -0.000000
										}
									}
								}
								JOINT LThumb
								{
OFFSET 0 0.000000 0.000000
CHANNELS 3 Zrotation Xrotation Yrotation
									End Site
									{
OFFSET 0 -0.469120 0.469120
									}
								}
							}
						}
					}
				}
				JOINT RightCollar
				{
					OFFSET 0 0 0
					CHANNELS 3 Zrotation Yrotation Xrotation
					JOINT RightShoulder
					{
						OFFSET -3.59596 0.95831 -0.26050
CHANNELS 3 Zrotation Xrotation Yrotation
						JOINT RightElbow
						{
OFFSET 0 -5.239080 -0.000000
CHANNELS 3 Zrotation Xrotation Yrotation
							JOINT RightWrist
							{
OFFSET 0 -3.464850 -0.000000
CHANNELS 3 Zrotation Xrotation Yrotation
								JOINT rhand
								{
									OFFSET 0 0 0
CHANNELS 3 Zrotation Xrotation Yrotation
									JOINT RFingers
									{
OFFSET 0 -0.608750 -0.000000
CHANNELS 3 Zrotation Xrotation Yrotation
										End Site
										{
OFFSET 0 -0.490790 -0.000000
										}
									}
								}
								JOINT RThumb
								{
OFFSET 0 0.000000 0.000000
CHANNELS 3 Zrotation Xrotation Yrotation
									End Site
									{
OFFSET 0 -0.498290 0.498290
									}
								}
							}
						}
					}
				}
			}
		}
	}
}
MOTION
Frames: 6
Frame Time: 0.008333333333333333
6.803214 16.185693 -3.835884 -0.000753 -20.469454 -361.327033 0.000000 0.000000 0.000000 -23.922118 9.660998 -8.504060 1.963603 8.789111 25.138433 1.395483 -1.153744 -21.994491 0.161688 -2.590893 -7.141848 0.000000 0.000000 0.000000 19.437698 11.417499 -31.862532 -10.064051 -17.442048 59.697171 -0.863239 -9.058533 -23.061714 -0.060680 1.586148 -4.363212 -1.359791 -1.130465 2.295937 -0.970816 -1.514733 3.330218 -0.228810 -0.780889 2.138198 -1.732299 -4.289503 -6.839010 4.388701 -6.106025 10.440617 1.264769 -2.836532 4.436568 0.000000 0.000000 0.000000 3.378448 -1.160411 -24.122809 18.124005 -28.313389 4.609078 21.067110 -16.224346 -12.599970 0.000000 0.000000 0.000000 -7.125000 0.000000 0.000000 -5.663318 43.378863 -0.227489 0.000000 0.000000 0.000000 -2.117074 4.523378 30.994521 -17.331980 -27.293320 -4.238482 -17.037800 6.807461 9.965383 0.000000 0.000000 0.000000 7.125000 0.000000 0.000000 8.752290 40.241478 1.035851
6.651689 16.177357 -3.539356 0.322837 -20.801238 -361.358144 0.000000 0.000000 0.000000 -24.038167 10.184873 -6.531064 1.762033 8.350524 23.784534 1.454504 -0.661106 -22.609472 0.163306 -2.603783 -7.177563 0.000000 0.000000 0.000000 19.259884 11.864133 -32.973702 -8.876357 -16.723567 55.655665 -0.893737 -9.621747 -23.796409 -0.040621 1.300885 -3.577105 -1.696085 -1.135852 2.294362 -0.975998 -1.525105 3.277329 -0.045396 -0.793152 2.093791 -1.859959 -4.429129 -6.760772 4.681291 -6.304477 10.207477 1.365932 -2.927597 4.372114 0.000000 0.000000 0.000000 4.008645 -1.638438 -25.158276 19.440226 -29.959964 5.249916 20.707134 -17.034313 -12.418104 0.000000 0.000000 0.000000 -7.125000 0.000000 0.000000 -5.955373 43.147631 -0.273326 0.000000 0.000000 0.000000 -2.121038 4.772030 30.803907 -17.227095 -27.156225 -4.190487 -17.109862 7.115057 9.912094 0.000000 0.000000 0.000000 7.125000 0.000000 0.000000 8.680270 40.192709 1.037661
6.492842 16.166796 -3.241575 0.752044 -21.244466 -361.476720 0.000000 0.000000 0.000000 -24.191794 11.045077 -4.369769 1.516199 7.774383 22.031714 1.487626 -0.282309 -22.988232 0.174048 -2.686884 -7.408230 0.000000 0.000000 0.000000 19.095256 12.132940 -33.829565 -7.669344 -15.867001 51.356744 -0.913623 -10.021727 -24.303080 -0.030858 1.133396 -3.116014 -2.141633 -1.103380 2.270412 -1.034728 -1.484409 3.260281 0.142845 -0.782174 2.099912 -1.988446 -4.579725 -6.666700 5.043630 -6.522906 9.932979 1.488075 -3.026300 4.296453 0.000000 0.000000 0.000000 4.728247 -2.118245 -26.102025 20.749501 -31.533402 5.919046 20.583649 -17.847032 -12.197391 0.000000 0.000000 0.000000 -7.125000 0.000000 0.000000 -6.027105 42.901821 -0.313218 0.000000 0.000000 0.000000 -2.043859 4.966831 30.521235 -17.112063 -27.005282 -4.138144 -17.157801 7.365974 9.894318 0.000000 0.000000 0.000000 7.125000 0.000000 0.000000 8.635525 40.178431 1.035315
6.327763 16.154395 -2.940758 1.212708 -21.776254 -361.641811 0.000000 0.000000 0.000000 -24.306175 12.195974 -2.035892 1.242610 7.067053 19.914502 1.489919 0.028561 -23.108392 0.203196 -2.902456 -8.007270 0.000000 0.000000 0.000000 19.025250 12.283751 -34.411984 -6.467631 -14.864681 46.827010 -0.968731 -10.139504 -24.853207 -0.019176 0.894256 -2.457861 -2.604761 -1.049905 2.176456 -1.118816 -1.412233 3.281033 0.312843 -0.756572 2.183022 -2.136480 -4.731737 -6.543772 5.462129 -6.744206 9.613002 1.631358 -3.126132 4.206077 0.000000 0.000000 0.000000 5.476269 -2.635412 -26.886465 21.984781 -32.959265 6.577827 20.677881 -18.611822 -11.945376 0.000000 0.000000 0.000000 -7.125000 0.000000 0.000000 -5.898612 42.646016 -0.343862 0.000000 0.000000 0.000000 -1.917906 5.093353 30.199554 -16.968827 -26.816632 -4.073292 -17.252588 7.560064 9.927640 0.000000 0.000000 0.000000 7.125000 0.000000 0.000000 8.559366 40.220736 1.017055
6.158125 16.140554 -2.636509 1.596523 -22.365852 -361.778796 0.000000 0.000000 0.000000 -24.287288 13.548976 0.458008 0.956595 6.227509 17.446102 1.455005 0.350960 -22.945670 0.248115 -3.205264 -8.850636 0.000000 0.000000 0.000000 19.140345 12.391297 -34.718623 -5.301631 -13.714648 42.108191 -1.039481 -10.237297 -25.497710 -0.013573 0.751967 -2.066609 -2.965674 -1.000288 1.993906 -1.189175 -1.339585 3.315189 0.437740 -0.729637 2.326709 -2.299665 -4.868756 -6.410467 5.872488 -6.941441 9.295089 1.776266 -3.216161 4.115173 0.000000 0.000000 0.000000 6.209785 -3.179890 -27.464148 23.083819 -34.180142 7.185426 20.804327 -19.311130 -11.671125 0.000000 0.000000 0.000000 -7.125000 0.000000 0.000000 -5.738961 42.369578 -0.373772 0.000000 0.000000 0.000000 -1.786901 5.160438 29.898329 -16.782839 -26.570588 -3.989686 -17.389239 7.695073 9.985432 0.000000 0.000000 0.000000 7.125000 0.000000 0.000000 8.451277 40.291795 0.989067
5.985153 16.125631 -2.330448 1.860829 -22.941567 -361.876012 0.000000 0.000000 0.000000 -24.105806 14.968566 3.205258 0.669792 5.229290 14.564763 1.374063 0.832772 -22.475365 0.302421 -3.535111 -9.772355 0.000000 0.000000 0.000000 19.415661 12.519784 -34.753838 -4.225281 -12.450120 37.349961 -1.127926 -10.405409 -26.315678 -0.012385 0.717578 -1.971881 -3.169284 -0.975415 1.788020 -1.234401 -1.297470 3.335137 0.500630 -0.714775 2.465881 -2.445882 -4.988509 -6.293120 6.214547 -7.112574 9.049958 1.898354 -3.295408 4.046170 0.000000 0.000000 0.000000 6.912585 -3.713284 -27.854610 23.998165 -35.161820 7.705716 20.932504 -19.924611 -11.430112 0.000000 0.000000 0.000000 -7.125000 0.000000 0.000000 -5.584805 42.127661 -0.397095 0.000000 0.000000 0.000000 -1.660231 5.200374 29.589340 -16.549602 -26.260140 -3.886011 -17.469799 7.817606 10.001328 0.000000 0.000000 0.000000 7.125000 0.000000 0.000000 8.384175 40.315039 0.976280
